<svg width="740" height="200" viewBox="0 0 740 200" fill="none" xmlns="http://www.w3.org/2000/svg">
<rect x="39.25" y="60.25" width="79.5" height="79.5" rx="5.75" stroke="#A3A3A3" stroke-width="0.5"/>
<rect x="330.25" y="60.25" width="79.5" height="79.5" rx="5.75" stroke="#A3A3A3" stroke-width="0.5"/>
<rect x="621.25" y="60.25" width="79.5" height="79.5" rx="5.75" stroke="#A3A3A3" stroke-width="0.5"/>
<path d="M59.4652 94.2727H58.4084V103H59.4652V94.2727ZM62.4535 99.0625C62.4535 97.9205 63.1609 97.2727 64.1239 97.2727C65.0572 97.2727 65.6239 97.8821 65.6239 98.9091V103H66.6296V98.8409C66.6296 97.1705 65.739 96.3693 64.4137 96.3693C63.4251 96.3693 62.8114 96.8125 62.5046 97.4773H62.4194V96.4545H61.4478V103H62.4535V99.0625ZM71.3139 96.4545H69.9162V94.8864H68.9105V96.4545H67.9219V97.3068H68.9105V101.398C68.9105 102.54 69.831 103.085 70.6832 103.085C71.0582 103.085 71.2969 103.017 71.4332 102.966L71.2287 102.062C71.1435 102.08 71.0071 102.114 70.7855 102.114C70.3423 102.114 69.9162 101.977 69.9162 101.125V97.3068H71.3139V96.4545ZM75.5007 103.136C76.8303 103.136 77.8018 102.472 78.1087 101.483L77.1371 101.21C76.8814 101.892 76.2891 102.233 75.5007 102.233C74.3203 102.233 73.5064 101.47 73.4595 100.068H78.2109V99.642C78.2109 97.2045 76.7621 96.3693 75.3984 96.3693C73.6257 96.3693 72.4496 97.767 72.4496 99.7784C72.4496 101.79 73.6087 103.136 75.5007 103.136ZM73.4595 99.1989C73.5277 98.1804 74.2479 97.2727 75.3984 97.2727C76.4893 97.2727 77.1882 98.0909 77.1882 99.1989H73.4595ZM79.7408 103H80.7464V98.858C80.7464 97.9716 81.4453 97.3239 82.3999 97.3239C82.6683 97.3239 82.9453 97.375 83.0135 97.392V96.3693C82.8984 96.3608 82.6342 96.3523 82.4851 96.3523C81.701 96.3523 81.0192 96.7955 80.7805 97.4432H80.7124V96.4545H79.7408V103ZM85.2113 99.0625C85.2113 97.9205 85.9187 97.2727 86.8817 97.2727C87.815 97.2727 88.3817 97.8821 88.3817 98.9091V103H89.3874V98.8409C89.3874 97.1705 88.4968 96.3693 87.1715 96.3693C86.1829 96.3693 85.5692 96.8125 85.2624 97.4773H85.1772V96.4545H84.2056V103H85.2113V99.0625ZM93.9695 103.136C95.299 103.136 96.2706 102.472 96.5774 101.483L95.6058 101.21C95.3501 101.892 94.7578 102.233 93.9695 102.233C92.7891 102.233 91.9751 101.47 91.9283 100.068H96.6797V99.642C96.6797 97.2045 95.2308 96.3693 93.8672 96.3693C92.0945 96.3693 90.9183 97.767 90.9183 99.7784C90.9183 101.79 92.0774 103.136 93.9695 103.136ZM91.9283 99.1989C91.9964 98.1804 92.7166 97.2727 93.8672 97.2727C94.9581 97.2727 95.657 98.0909 95.657 99.1989H91.9283ZM101.056 96.4545H99.6584V94.8864H98.6527V96.4545H97.6641V97.3068H98.6527V101.398C98.6527 102.54 99.5732 103.085 100.425 103.085C100.8 103.085 101.039 103.017 101.175 102.966L100.971 102.062C100.886 102.08 100.749 102.114 100.528 102.114C100.085 102.114 99.6584 101.977 99.6584 101.125V97.3068H101.056V96.4545Z" fill="black"/>
<path d="M351.062 97H352.153C351.829 95.3125 350.414 94.1534 348.573 94.1534C346.336 94.1534 344.755 95.875 344.755 98.6364C344.755 101.398 346.323 103.119 348.641 103.119C350.721 103.119 352.204 101.734 352.204 99.5739V98.6364H348.88V99.5739H351.181C351.151 101.142 350.12 102.131 348.641 102.131C347.022 102.131 345.778 100.903 345.778 98.6364C345.778 96.3693 347.022 95.142 348.573 95.142C349.835 95.142 350.691 95.8537 351.062 97ZM355.804 103.153C356.946 103.153 357.542 102.54 357.747 102.114H357.798V103H358.804V98.6875C358.804 96.608 357.218 96.3693 356.383 96.3693C355.395 96.3693 354.27 96.7102 353.758 97.9034L354.713 98.2443C354.934 97.767 355.458 97.2557 356.417 97.2557C357.342 97.2557 357.798 97.7457 357.798 98.5852V98.6193C357.798 99.1051 357.304 99.0625 356.11 99.2159C354.896 99.3736 353.571 99.642 353.571 101.142C353.571 102.42 354.559 103.153 355.804 103.153ZM355.957 102.25C355.156 102.25 354.576 101.892 354.576 101.193C354.576 100.426 355.275 100.188 356.059 100.085C356.485 100.034 357.627 99.9148 357.798 99.7102V100.631C357.798 101.449 357.15 102.25 355.957 102.25ZM363.486 96.4545H362.088V94.8864H361.082V96.4545H360.094V97.3068H361.082V101.398C361.082 102.54 362.003 103.085 362.855 103.085C363.23 103.085 363.469 103.017 363.605 102.966L363.401 102.062C363.315 102.08 363.179 102.114 362.957 102.114C362.514 102.114 362.088 101.977 362.088 101.125V97.3068H363.486V96.4545ZM367.673 103.136C369.002 103.136 369.974 102.472 370.281 101.483L369.309 101.21C369.053 101.892 368.461 102.233 367.673 102.233C366.492 102.233 365.678 101.47 365.631 100.068H370.383V99.642C370.383 97.2045 368.934 96.3693 367.57 96.3693C365.798 96.3693 364.621 97.767 364.621 99.7784C364.621 101.79 365.781 103.136 367.673 103.136ZM365.631 99.1989C365.7 98.1804 366.42 97.2727 367.57 97.2727C368.661 97.2727 369.36 98.0909 369.36 99.1989H365.631ZM373.396 103H374.384L375.816 97.9716H375.918L377.35 103H378.339L380.333 96.4545H379.276L377.862 101.449H377.793L376.413 96.4545H375.339L373.941 101.466H373.873L372.458 96.4545H371.401L373.396 103ZM383.589 103.153C384.731 103.153 385.327 102.54 385.532 102.114H385.583V103H386.589V98.6875C386.589 96.608 385.004 96.3693 384.168 96.3693C383.18 96.3693 382.055 96.7102 381.543 97.9034L382.498 98.2443C382.719 97.767 383.244 97.2557 384.202 97.2557C385.127 97.2557 385.583 97.7457 385.583 98.5852V98.6193C385.583 99.1051 385.089 99.0625 383.896 99.2159C382.681 99.3736 381.356 99.642 381.356 101.142C381.356 102.42 382.344 103.153 383.589 103.153ZM383.742 102.25C382.941 102.25 382.362 101.892 382.362 101.193C382.362 100.426 383.06 100.188 383.844 100.085C384.271 100.034 385.413 99.9148 385.583 99.7102V100.631C385.583 101.449 384.935 102.25 383.742 102.25ZM388.838 105.455C389.745 105.455 390.385 104.973 390.764 103.955L393.551 96.4716L392.451 96.4545L390.645 101.67H390.576L388.77 96.4545H387.679L390.099 103.034L389.912 103.545C389.545 104.543 389.093 104.636 388.36 104.449L388.105 105.335C388.207 105.386 388.497 105.455 388.838 105.455Z" fill="black"/>
<path d="M486.339 90.6364H487.021C486.99 89.7585 486.18 89.1023 485.055 89.1023C483.942 89.1023 483.067 89.75 483.067 90.7273C483.067 91.5114 483.635 91.9773 484.544 92.2386L485.26 92.4432C485.874 92.6136 486.419 92.8295 486.419 93.4091C486.419 94.0455 485.805 94.4659 484.999 94.4659C484.305 94.4659 483.692 94.1591 483.635 93.5H482.908C482.976 94.4545 483.749 95.1023 484.999 95.1023C486.339 95.1023 487.101 94.3636 487.101 93.4205C487.101 92.3295 486.067 91.9773 485.464 91.8182L484.874 91.6591C484.442 91.5455 483.749 91.3182 483.749 90.6932C483.749 90.1364 484.26 89.7273 485.033 89.7273C485.737 89.7273 486.271 90.0625 486.339 90.6364ZM489.998 95.0909C490.884 95.0909 491.532 94.6477 491.737 93.9886L491.089 93.8068C490.918 94.2614 490.523 94.4886 489.998 94.4886C489.211 94.4886 488.668 93.9801 488.637 93.0455H491.805V92.7614C491.805 91.1364 490.839 90.5795 489.93 90.5795C488.748 90.5795 487.964 91.5114 487.964 92.8523C487.964 94.1932 488.737 95.0909 489.998 95.0909ZM488.637 92.4659C488.683 91.7869 489.163 91.1818 489.93 91.1818C490.657 91.1818 491.123 91.7273 491.123 92.4659H488.637ZM494.597 95.0909C495.563 95.0909 496.2 94.5 496.313 93.7273H495.643C495.518 94.2045 495.12 94.4886 494.597 94.4886C493.802 94.4886 493.29 93.8295 493.29 92.8182C493.29 91.8295 493.813 91.1818 494.597 91.1818C495.188 91.1818 495.54 91.5455 495.643 91.9432H496.313C496.2 91.125 495.506 90.5795 494.586 90.5795C493.404 90.5795 492.62 91.5114 492.62 92.8409C492.62 94.1477 493.37 95.0909 494.597 95.0909ZM500.043 93.2159C500.043 94.0341 499.418 94.4091 498.918 94.4091C498.362 94.4091 497.964 94 497.964 93.3636V90.6364H497.293V93.4091C497.293 94.5227 497.884 95.0568 498.702 95.0568C499.362 95.0568 499.793 94.7045 499.998 94.2614H500.043V95H500.714V90.6364H500.043V93.2159ZM501.942 95H502.612V92.2386C502.612 91.6477 503.078 91.2159 503.714 91.2159C503.893 91.2159 504.078 91.25 504.124 91.2614V90.5795C504.047 90.5739 503.871 90.5682 503.771 90.5682C503.249 90.5682 502.794 90.8636 502.635 91.2955H502.589V90.6364H501.942V95ZM506.615 95.0909C507.501 95.0909 508.149 94.6477 508.354 93.9886L507.706 93.8068C507.536 94.2614 507.141 94.4886 506.615 94.4886C505.828 94.4886 505.286 93.9801 505.254 93.0455H508.422V92.7614C508.422 91.1364 507.456 90.5795 506.547 90.5795C505.365 90.5795 504.581 91.5114 504.581 92.8523C504.581 94.1932 505.354 95.0909 506.615 95.0909ZM505.254 92.4659C505.3 91.7869 505.78 91.1818 506.547 91.1818C507.274 91.1818 507.74 91.7273 507.74 92.4659H505.254ZM513.589 90.6364H512.658V89.5909H511.987V90.6364H511.328V91.2045H511.987V93.9318C511.987 94.6932 512.601 95.0568 513.169 95.0568C513.419 95.0568 513.578 95.0114 513.669 94.9773L513.533 94.375C513.476 94.3864 513.385 94.4091 513.237 94.4091C512.942 94.4091 512.658 94.3182 512.658 93.75V91.2045H513.589V90.6364ZM517.348 93.2159C517.348 94.0341 516.723 94.4091 516.223 94.4091C515.666 94.4091 515.268 94 515.268 93.3636V90.6364H514.598V93.4091C514.598 94.5227 515.189 95.0568 516.007 95.0568C516.666 95.0568 517.098 94.7045 517.303 94.2614H517.348V95H518.018V90.6364H517.348V93.2159ZM519.917 92.375C519.917 91.6136 520.388 91.1818 521.031 91.1818C521.653 91.1818 522.031 91.5881 522.031 92.2727V95H522.701V92.2273C522.701 91.1136 522.107 90.5795 521.224 90.5795C520.565 90.5795 520.156 90.875 519.951 91.3182H519.894V90.6364H519.246V95H519.917V92.375ZM524.597 92.375C524.597 91.6136 525.068 91.1818 525.71 91.1818C526.332 91.1818 526.71 91.5881 526.71 92.2727V95H527.381V92.2273C527.381 91.1136 526.787 90.5795 525.903 90.5795C525.244 90.5795 524.835 90.875 524.631 91.3182H524.574V90.6364H523.926V95H524.597V92.375ZM530.435 95.0909C531.322 95.0909 531.969 94.6477 532.174 93.9886L531.526 93.8068C531.356 94.2614 530.961 94.4886 530.435 94.4886C529.648 94.4886 529.106 93.9801 529.075 93.0455H532.242V92.7614C532.242 91.1364 531.276 90.5795 530.367 90.5795C529.185 90.5795 528.401 91.5114 528.401 92.8523C528.401 94.1932 529.174 95.0909 530.435 95.0909ZM529.075 92.4659C529.12 91.7869 529.6 91.1818 530.367 91.1818C531.094 91.1818 531.56 91.7273 531.56 92.4659H529.075ZM533.933 89.1818H533.262V95H533.933V89.1818Z" fill="#5B5B5B"/>
<path d="M181.744 95H182.448V92.3977H185.55V95H186.255V89.1818H185.55V91.7727H182.448V89.1818H181.744V95ZM187.347 89.8068H189.177V95H189.881V89.8068H191.711V89.1818H187.347V89.8068ZM192.48 89.8068H194.31V95H195.014V89.8068H196.844V89.1818H192.48V89.8068ZM197.931 95H198.636V92.875H199.908C201.263 92.875 201.874 92.0511 201.874 91.0227C201.874 89.9943 201.263 89.1818 199.897 89.1818H197.931V95ZM198.636 92.25V89.8068H199.874C200.82 89.8068 201.181 90.3239 201.181 91.0227C201.181 91.7216 200.82 92.25 199.886 92.25H198.636ZM203.598 94.2045H202.871L202.837 94.5227C202.754 95.2926 202.592 96.0597 202.518 96.4205H203.03C203.166 96.0341 203.456 95.1591 203.553 94.5114L203.598 94.2045ZM207.181 95H207.886V92.3977H210.988V95H211.692V89.1818H210.988V91.7727H207.886V89.1818H207.181V95ZM212.785 89.8068H214.614V95H215.319V89.8068H217.148V89.1818H212.785V89.8068ZM217.918 89.8068H219.747V95H220.452V89.8068H222.281V89.1818H217.918V89.8068ZM223.369 95H224.073V92.875H225.346C226.701 92.875 227.312 92.0511 227.312 91.0227C227.312 89.9943 226.701 89.1818 225.335 89.1818H223.369V95ZM224.073 92.25V89.8068H225.312C226.258 89.8068 226.619 90.3239 226.619 91.0227C226.619 91.7216 226.258 92.25 225.323 92.25H224.073ZM231.629 90.6364H232.31C232.279 89.7585 231.469 89.1023 230.344 89.1023C229.231 89.1023 228.356 89.75 228.356 90.7273C228.356 91.5114 228.924 91.9773 229.833 92.2386L230.549 92.4432C231.163 92.6136 231.708 92.8295 231.708 93.4091C231.708 94.0455 231.094 94.4659 230.288 94.4659C229.594 94.4659 228.981 94.1591 228.924 93.5H228.197C228.265 94.4545 229.038 95.1023 230.288 95.1023C231.629 95.1023 232.39 94.3636 232.39 93.4205C232.39 92.3295 231.356 91.9773 230.754 91.8182L230.163 91.6591C229.731 91.5455 229.038 91.3182 229.038 90.6932C229.038 90.1364 229.549 89.7273 230.322 89.7273C231.026 89.7273 231.56 90.0625 231.629 90.6364ZM235.707 95H236.378V92.2386C236.378 91.6477 236.844 91.2159 237.48 91.2159C237.659 91.2159 237.844 91.25 237.889 91.2614V90.5795C237.812 90.5739 237.636 90.5682 237.537 90.5682C237.014 90.5682 236.56 90.8636 236.401 91.2955H236.355V90.6364H235.707V95ZM240.381 95.0909C241.267 95.0909 241.915 94.6477 242.119 93.9886L241.472 93.8068C241.301 94.2614 240.906 94.4886 240.381 94.4886C239.594 94.4886 239.051 93.9801 239.02 93.0455H242.188V92.7614C242.188 91.1364 241.222 90.5795 240.312 90.5795C239.131 90.5795 238.347 91.5114 238.347 92.8523C238.347 94.1932 239.119 95.0909 240.381 95.0909ZM239.02 92.4659C239.065 91.7869 239.545 91.1818 240.312 91.1818C241.04 91.1818 241.506 91.7273 241.506 92.4659H239.02ZM246.855 96.6364V90.6364H246.207V91.3295H246.128C245.98 91.1023 245.719 90.5795 244.866 90.5795C243.764 90.5795 243.003 91.4545 243.003 92.8295C243.003 94.2159 243.764 95.0909 244.855 95.0909C245.696 95.0909 245.98 94.5682 246.128 94.3295H246.185V96.6364H246.855ZM246.196 92.8182C246.196 93.8068 245.753 94.4886 244.946 94.4886C244.105 94.4886 243.673 93.75 243.673 92.8182C243.673 91.8977 244.094 91.1818 244.946 91.1818C245.764 91.1818 246.196 91.8409 246.196 92.8182ZM250.832 93.2159C250.832 94.0341 250.207 94.4091 249.707 94.4091C249.151 94.4091 248.753 94 248.753 93.3636V90.6364H248.082V93.4091C248.082 94.5227 248.673 95.0568 249.491 95.0568C250.151 95.0568 250.582 94.7045 250.787 94.2614H250.832V95H251.503V90.6364H250.832V93.2159ZM254.56 95.0909C255.447 95.0909 256.094 94.6477 256.299 93.9886L255.651 93.8068C255.481 94.2614 255.086 94.4886 254.56 94.4886C253.773 94.4886 253.231 93.9801 253.2 93.0455H256.367V92.7614C256.367 91.1364 255.401 90.5795 254.492 90.5795C253.31 90.5795 252.526 91.5114 252.526 92.8523C252.526 94.1932 253.299 95.0909 254.56 95.0909ZM253.2 92.4659C253.245 91.7869 253.725 91.1818 254.492 91.1818C255.219 91.1818 255.685 91.7273 255.685 92.4659H253.2ZM260.478 91.6136C260.268 90.9943 259.796 90.5795 258.933 90.5795C258.012 90.5795 257.33 91.1023 257.33 91.8409C257.33 92.4432 257.688 92.8466 258.489 93.0341L259.217 93.2045C259.657 93.3068 259.864 93.517 259.864 93.8182C259.864 94.1932 259.467 94.5 258.842 94.5C258.293 94.5 257.95 94.2642 257.83 93.7955L257.194 93.9545C257.35 94.696 257.961 95.0909 258.853 95.0909C259.867 95.0909 260.558 94.5369 260.558 93.7841C260.558 93.1761 260.177 92.7926 259.398 92.6023L258.751 92.4432C258.234 92.3153 258.001 92.142 258.001 91.8068C258.001 91.4318 258.398 91.1591 258.933 91.1591C259.518 91.1591 259.759 91.483 259.876 91.7841L260.478 91.6136ZM263.464 90.6364H262.533V89.5909H261.862V90.6364H261.203V91.2045H261.862V93.9318C261.862 94.6932 262.476 95.0568 263.044 95.0568C263.294 95.0568 263.453 95.0114 263.544 94.9773L263.408 94.375C263.351 94.3864 263.26 94.4091 263.112 94.4091C262.817 94.4091 262.533 94.3182 262.533 93.75V91.2045H263.464V90.6364ZM267.486 91.6136C267.276 90.9943 266.804 90.5795 265.94 90.5795C265.02 90.5795 264.338 91.1023 264.338 91.8409C264.338 92.4432 264.696 92.8466 265.497 93.0341L266.224 93.2045C266.665 93.3068 266.872 93.517 266.872 93.8182C266.872 94.1932 266.474 94.5 265.849 94.5C265.301 94.5 264.957 94.2642 264.838 93.7955L264.202 93.9545C264.358 94.696 264.969 95.0909 265.861 95.0909C266.875 95.0909 267.565 94.5369 267.565 93.7841C267.565 93.1761 267.185 92.7926 266.406 92.6023L265.759 92.4432C265.241 92.3153 265.009 92.142 265.009 91.8068C265.009 91.4318 265.406 91.1591 265.94 91.1591C266.526 91.1591 266.767 91.483 266.884 91.7841L267.486 91.6136Z" fill="#5B5B5B"/>
<path d="M647.445 96H652.559V95.0625H648.502V87.2727H647.445V96ZM656.718 96.1364C658.491 96.1364 659.684 94.7898 659.684 92.7614C659.684 90.7159 658.491 89.3693 656.718 89.3693C654.945 89.3693 653.752 90.7159 653.752 92.7614C653.752 94.7898 654.945 96.1364 656.718 96.1364ZM656.718 95.233C655.372 95.233 654.758 94.0739 654.758 92.7614C654.758 91.4489 655.372 90.2727 656.718 90.2727C658.065 90.2727 658.678 91.4489 658.678 92.7614C658.678 94.0739 658.065 95.233 656.718 95.233ZM663.878 96.1364C665.327 96.1364 666.282 95.25 666.452 94.0909H665.447C665.259 94.8068 664.662 95.233 663.878 95.233C662.685 95.233 661.918 94.2443 661.918 92.7273C661.918 91.2443 662.702 90.2727 663.878 90.2727C664.765 90.2727 665.293 90.8182 665.447 91.4148H666.452C666.282 90.1875 665.242 89.3693 663.861 89.3693C662.089 89.3693 660.912 90.767 660.912 92.7614C660.912 94.7216 662.037 96.1364 663.878 96.1364ZM669.849 96.1534C670.991 96.1534 671.587 95.5398 671.792 95.1136H671.843V96H672.849V91.6875C672.849 89.608 671.263 89.3693 670.428 89.3693C669.439 89.3693 668.314 89.7102 667.803 90.9034L668.758 91.2443C668.979 90.767 669.503 90.2557 670.462 90.2557C671.387 90.2557 671.843 90.7457 671.843 91.5852V91.6193C671.843 92.1051 671.349 92.0625 670.155 92.2159C668.941 92.3736 667.616 92.642 667.616 94.142C667.616 95.4205 668.604 96.1534 669.849 96.1534ZM670.002 95.25C669.201 95.25 668.621 94.892 668.621 94.1932C668.621 93.4261 669.32 93.1875 670.104 93.0852C670.53 93.0341 671.672 92.9148 671.843 92.7102V93.6307C671.843 94.4489 671.195 95.25 670.002 95.25ZM675.69 87.2727H674.684V96H675.69V87.2727ZM640.405 107.062C640.405 105.92 641.112 105.273 642.075 105.273C643.008 105.273 643.575 105.882 643.575 106.909V111H644.581V106.841C644.581 105.17 643.69 104.369 642.365 104.369C641.376 104.369 640.763 104.812 640.456 105.477H640.371V104.455H639.399V111H640.405V107.062ZM649.163 111.136C650.492 111.136 651.464 110.472 651.771 109.483L650.799 109.21C650.544 109.892 649.951 110.233 649.163 110.233C647.982 110.233 647.169 109.47 647.122 108.068H651.873V107.642C651.873 105.205 650.424 104.369 649.061 104.369C647.288 104.369 646.112 105.767 646.112 107.778C646.112 109.79 647.271 111.136 649.163 111.136ZM647.122 107.199C647.19 106.18 647.91 105.273 649.061 105.273C650.151 105.273 650.85 106.091 650.85 107.199H647.122ZM656.249 104.455H654.852V102.886H653.846V104.455H652.857V105.307H653.846V109.398C653.846 110.54 654.767 111.085 655.619 111.085C655.994 111.085 656.232 111.017 656.369 110.966L656.164 110.062C656.079 110.08 655.943 110.114 655.721 110.114C655.278 110.114 654.852 109.977 654.852 109.125V105.307H656.249V104.455ZM659.245 111H660.234L661.666 105.972H661.768L663.2 111H664.188L666.183 104.455H665.126L663.711 109.449H663.643L662.262 104.455H661.188L659.791 109.466H659.722L658.308 104.455H657.251L659.245 111ZM669.949 111.136C671.721 111.136 672.915 109.79 672.915 107.761C672.915 105.716 671.721 104.369 669.949 104.369C668.176 104.369 666.983 105.716 666.983 107.761C666.983 109.79 668.176 111.136 669.949 111.136ZM669.949 110.233C668.602 110.233 667.988 109.074 667.988 107.761C667.988 106.449 668.602 105.273 669.949 105.273C671.295 105.273 671.909 106.449 671.909 107.761C671.909 109.074 671.295 110.233 669.949 110.233ZM674.45 111H675.455V106.858C675.455 105.972 676.154 105.324 677.109 105.324C677.377 105.324 677.654 105.375 677.722 105.392V104.369C677.607 104.361 677.343 104.352 677.194 104.352C676.41 104.352 675.728 104.795 675.49 105.443H675.421V104.455H674.45V111ZM678.915 111H679.92V108.55L680.623 107.898L683.074 111H684.352L681.382 107.25L684.148 104.455H682.903L680.04 107.369H679.92V102.273H678.915V111Z" fill="black"/>
<path d="M320.354 100.354C320.549 100.158 320.549 99.8417 320.354 99.6464L317.172 96.4645C316.976 96.2692 316.66 96.2692 316.464 96.4645C316.269 96.6597 316.269 96.9763 316.464 97.1716L319.293 100L316.464 102.828C316.269 103.024 316.269 103.34 316.464 103.536C316.66 103.731 316.976 103.731 317.172 103.536L320.354 100.354ZM128 100.5H320V99.5H128V100.5Z" fill="black"/>
<path d="M418.646 98.6465C418.451 98.8417 418.451 99.1583 418.646 99.3536L421.828 102.536C422.024 102.731 422.34 102.731 422.536 102.536C422.731 102.34 422.731 102.024 422.536 101.828L419.707 99L422.536 96.1716C422.731 95.9763 422.731 95.6597 422.536 95.4645C422.34 95.2692 422.024 95.2692 421.828 95.4645L418.646 98.6465ZM611 98.5L419 98.5L419 99.5L611 99.5L611 98.5Z" fill="black"/>
<path d="M611.354 107.354C611.549 107.158 611.549 106.842 611.354 106.646L608.172 103.464C607.976 103.269 607.66 103.269 607.464 103.464C607.269 103.66 607.269 103.976 607.464 104.172L610.293 107L607.464 109.828C607.269 110.024 607.269 110.34 607.464 110.536C607.66 110.731 607.976 110.731 608.172 110.536L611.354 107.354ZM419 107.5L611 107.5L611 106.5L419 106.5L419 107.5Z" fill="black"/>
</svg>
