<svg width="589" height="200" viewBox="0 0 589 200" fill="none" xmlns="http://www.w3.org/2000/svg">
<rect x="39.25" y="60.25" width="79.5" height="79.5" rx="5.75" stroke="#A3A3A3" stroke-width="0.5"/>
<rect x="261.25" y="60.25" width="79.5" height="79.5" rx="5.75" stroke="#A3A3A3" stroke-width="0.5"/>
<rect x="467.25" y="60.25" width="79.5" height="79.5" rx="5.75" stroke="#A3A3A3" stroke-width="0.5"/>
<path d="M59.4652 94.2727H58.4084V103H59.4652V94.2727ZM62.4535 99.0625C62.4535 97.9205 63.1609 97.2727 64.1239 97.2727C65.0572 97.2727 65.6239 97.8821 65.6239 98.9091V103H66.6296V98.8409C66.6296 97.1705 65.739 96.3693 64.4137 96.3693C63.4251 96.3693 62.8114 96.8125 62.5046 97.4773H62.4194V96.4545H61.4478V103H62.4535V99.0625ZM71.3139 96.4545H69.9162V94.8864H68.9105V96.4545H67.9219V97.3068H68.9105V101.398C68.9105 102.54 69.831 103.085 70.6832 103.085C71.0582 103.085 71.2969 103.017 71.4332 102.966L71.2287 102.062C71.1435 102.08 71.0071 102.114 70.7855 102.114C70.3423 102.114 69.9162 101.977 69.9162 101.125V97.3068H71.3139V96.4545ZM75.5007 103.136C76.8303 103.136 77.8018 102.472 78.1087 101.483L77.1371 101.21C76.8814 101.892 76.2891 102.233 75.5007 102.233C74.3203 102.233 73.5064 101.47 73.4595 100.068H78.2109V99.642C78.2109 97.2045 76.7621 96.3693 75.3984 96.3693C73.6257 96.3693 72.4496 97.767 72.4496 99.7784C72.4496 101.79 73.6087 103.136 75.5007 103.136ZM73.4595 99.1989C73.5277 98.1804 74.2479 97.2727 75.3984 97.2727C76.4893 97.2727 77.1882 98.0909 77.1882 99.1989H73.4595ZM79.7408 103H80.7464V98.858C80.7464 97.9716 81.4453 97.3239 82.3999 97.3239C82.6683 97.3239 82.9453 97.375 83.0135 97.392V96.3693C82.8984 96.3608 82.6342 96.3523 82.4851 96.3523C81.701 96.3523 81.0192 96.7955 80.7805 97.4432H80.7124V96.4545H79.7408V103ZM85.2113 99.0625C85.2113 97.9205 85.9187 97.2727 86.8817 97.2727C87.815 97.2727 88.3817 97.8821 88.3817 98.9091V103H89.3874V98.8409C89.3874 97.1705 88.4968 96.3693 87.1715 96.3693C86.1829 96.3693 85.5692 96.8125 85.2624 97.4773H85.1772V96.4545H84.2056V103H85.2113V99.0625ZM93.9695 103.136C95.299 103.136 96.2706 102.472 96.5774 101.483L95.6058 101.21C95.3501 101.892 94.7578 102.233 93.9695 102.233C92.7891 102.233 91.9751 101.47 91.9283 100.068H96.6797V99.642C96.6797 97.2045 95.2308 96.3693 93.8672 96.3693C92.0945 96.3693 90.9183 97.767 90.9183 99.7784C90.9183 101.79 92.0774 103.136 93.9695 103.136ZM91.9283 99.1989C91.9964 98.1804 92.7166 97.2727 93.8672 97.2727C94.9581 97.2727 95.657 98.0909 95.657 99.1989H91.9283ZM101.056 96.4545H99.6584V94.8864H98.6527V96.4545H97.6641V97.3068H98.6527V101.398C98.6527 102.54 99.5732 103.085 100.425 103.085C100.8 103.085 101.039 103.017 101.175 102.966L100.971 102.062C100.886 102.08 100.749 102.114 100.528 102.114C100.085 102.114 99.6584 101.977 99.6584 101.125V97.3068H101.056V96.4545Z" fill="black"/>
<path d="M282.062 97H283.153C282.829 95.3125 281.414 94.1534 279.573 94.1534C277.336 94.1534 275.755 95.875 275.755 98.6364C275.755 101.398 277.323 103.119 279.641 103.119C281.721 103.119 283.204 101.734 283.204 99.5739V98.6364H279.88V99.5739H282.181C282.151 101.142 281.12 102.131 279.641 102.131C278.022 102.131 276.778 100.903 276.778 98.6364C276.778 96.3693 278.022 95.142 279.573 95.142C280.835 95.142 281.691 95.8537 282.062 97ZM286.804 103.153C287.946 103.153 288.542 102.54 288.747 102.114H288.798V103H289.804V98.6875C289.804 96.608 288.218 96.3693 287.383 96.3693C286.395 96.3693 285.27 96.7102 284.758 97.9034L285.713 98.2443C285.934 97.767 286.458 97.2557 287.417 97.2557C288.342 97.2557 288.798 97.7457 288.798 98.5852V98.6193C288.798 99.1051 288.304 99.0625 287.11 99.2159C285.896 99.3736 284.571 99.642 284.571 101.142C284.571 102.42 285.559 103.153 286.804 103.153ZM286.957 102.25C286.156 102.25 285.576 101.892 285.576 101.193C285.576 100.426 286.275 100.188 287.059 100.085C287.485 100.034 288.627 99.9148 288.798 99.7102V100.631C288.798 101.449 288.15 102.25 286.957 102.25ZM294.486 96.4545H293.088V94.8864H292.082V96.4545H291.094V97.3068H292.082V101.398C292.082 102.54 293.003 103.085 293.855 103.085C294.23 103.085 294.469 103.017 294.605 102.966L294.401 102.062C294.315 102.08 294.179 102.114 293.957 102.114C293.514 102.114 293.088 101.977 293.088 101.125V97.3068H294.486V96.4545ZM298.673 103.136C300.002 103.136 300.974 102.472 301.281 101.483L300.309 101.21C300.053 101.892 299.461 102.233 298.673 102.233C297.492 102.233 296.678 101.47 296.631 100.068H301.383V99.642C301.383 97.2045 299.934 96.3693 298.57 96.3693C296.798 96.3693 295.621 97.767 295.621 99.7784C295.621 101.79 296.781 103.136 298.673 103.136ZM296.631 99.1989C296.7 98.1804 297.42 97.2727 298.57 97.2727C299.661 97.2727 300.36 98.0909 300.36 99.1989H296.631ZM304.396 103H305.384L306.816 97.9716H306.918L308.35 103H309.339L311.333 96.4545H310.276L308.862 101.449H308.793L307.413 96.4545H306.339L304.941 101.466H304.873L303.458 96.4545H302.401L304.396 103ZM314.589 103.153C315.731 103.153 316.327 102.54 316.532 102.114H316.583V103H317.589V98.6875C317.589 96.608 316.004 96.3693 315.168 96.3693C314.18 96.3693 313.055 96.7102 312.543 97.9034L313.498 98.2443C313.719 97.767 314.244 97.2557 315.202 97.2557C316.127 97.2557 316.583 97.7457 316.583 98.5852V98.6193C316.583 99.1051 316.089 99.0625 314.896 99.2159C313.681 99.3736 312.356 99.642 312.356 101.142C312.356 102.42 313.344 103.153 314.589 103.153ZM314.742 102.25C313.941 102.25 313.362 101.892 313.362 101.193C313.362 100.426 314.06 100.188 314.844 100.085C315.271 100.034 316.413 99.9148 316.583 99.7102V100.631C316.583 101.449 315.935 102.25 314.742 102.25ZM319.838 105.455C320.745 105.455 321.385 104.973 321.764 103.955L324.551 96.4716L323.451 96.4545L321.645 101.67H321.576L319.77 96.4545H318.679L321.099 103.034L320.912 103.545C320.545 104.543 320.093 104.636 319.36 104.449L319.105 105.335C319.207 105.386 319.497 105.455 319.838 105.455Z" fill="black"/>
<path d="M375.339 90.6364H376.021C375.99 89.7585 375.18 89.1023 374.055 89.1023C372.942 89.1023 372.067 89.75 372.067 90.7273C372.067 91.5114 372.635 91.9773 373.544 92.2386L374.26 92.4432C374.874 92.6136 375.419 92.8295 375.419 93.4091C375.419 94.0455 374.805 94.4659 373.999 94.4659C373.305 94.4659 372.692 94.1591 372.635 93.5H371.908C371.976 94.4545 372.749 95.1023 373.999 95.1023C375.339 95.1023 376.101 94.3636 376.101 93.4205C376.101 92.3295 375.067 91.9773 374.464 91.8182L373.874 91.6591C373.442 91.5455 372.749 91.3182 372.749 90.6932C372.749 90.1364 373.26 89.7273 374.033 89.7273C374.737 89.7273 375.271 90.0625 375.339 90.6364ZM378.998 95.0909C379.884 95.0909 380.532 94.6477 380.737 93.9886L380.089 93.8068C379.918 94.2614 379.523 94.4886 378.998 94.4886C378.211 94.4886 377.668 93.9801 377.637 93.0455H380.805V92.7614C380.805 91.1364 379.839 90.5795 378.93 90.5795C377.748 90.5795 376.964 91.5114 376.964 92.8523C376.964 94.1932 377.737 95.0909 378.998 95.0909ZM377.637 92.4659C377.683 91.7869 378.163 91.1818 378.93 91.1818C379.657 91.1818 380.123 91.7273 380.123 92.4659H377.637ZM383.597 95.0909C384.563 95.0909 385.2 94.5 385.313 93.7273H384.643C384.518 94.2045 384.12 94.4886 383.597 94.4886C382.802 94.4886 382.29 93.8295 382.29 92.8182C382.29 91.8295 382.813 91.1818 383.597 91.1818C384.188 91.1818 384.54 91.5455 384.643 91.9432H385.313C385.2 91.125 384.506 90.5795 383.586 90.5795C382.404 90.5795 381.62 91.5114 381.62 92.8409C381.62 94.1477 382.37 95.0909 383.597 95.0909ZM389.043 93.2159C389.043 94.0341 388.418 94.4091 387.918 94.4091C387.362 94.4091 386.964 94 386.964 93.3636V90.6364H386.293V93.4091C386.293 94.5227 386.884 95.0568 387.702 95.0568C388.362 95.0568 388.793 94.7045 388.998 94.2614H389.043V95H389.714V90.6364H389.043V93.2159ZM390.942 95H391.612V92.2386C391.612 91.6477 392.078 91.2159 392.714 91.2159C392.893 91.2159 393.078 91.25 393.124 91.2614V90.5795C393.047 90.5739 392.871 90.5682 392.771 90.5682C392.249 90.5682 391.794 90.8636 391.635 91.2955H391.589V90.6364H390.942V95ZM395.615 95.0909C396.501 95.0909 397.149 94.6477 397.354 93.9886L396.706 93.8068C396.536 94.2614 396.141 94.4886 395.615 94.4886C394.828 94.4886 394.286 93.9801 394.254 93.0455H397.422V92.7614C397.422 91.1364 396.456 90.5795 395.547 90.5795C394.365 90.5795 393.581 91.5114 393.581 92.8523C393.581 94.1932 394.354 95.0909 395.615 95.0909ZM394.254 92.4659C394.3 91.7869 394.78 91.1818 395.547 91.1818C396.274 91.1818 396.74 91.7273 396.74 92.4659H394.254ZM402.589 90.6364H401.658V89.5909H400.987V90.6364H400.328V91.2045H400.987V93.9318C400.987 94.6932 401.601 95.0568 402.169 95.0568C402.419 95.0568 402.578 95.0114 402.669 94.9773L402.533 94.375C402.476 94.3864 402.385 94.4091 402.237 94.4091C401.942 94.4091 401.658 94.3182 401.658 93.75V91.2045H402.589V90.6364ZM406.348 93.2159C406.348 94.0341 405.723 94.4091 405.223 94.4091C404.666 94.4091 404.268 94 404.268 93.3636V90.6364H403.598V93.4091C403.598 94.5227 404.189 95.0568 405.007 95.0568C405.666 95.0568 406.098 94.7045 406.303 94.2614H406.348V95H407.018V90.6364H406.348V93.2159ZM408.917 92.375C408.917 91.6136 409.388 91.1818 410.031 91.1818C410.653 91.1818 411.031 91.5881 411.031 92.2727V95H411.701V92.2273C411.701 91.1136 411.107 90.5795 410.224 90.5795C409.565 90.5795 409.156 90.875 408.951 91.3182H408.894V90.6364H408.246V95H408.917V92.375ZM413.597 92.375C413.597 91.6136 414.068 91.1818 414.71 91.1818C415.332 91.1818 415.71 91.5881 415.71 92.2727V95H416.381V92.2273C416.381 91.1136 415.787 90.5795 414.903 90.5795C414.244 90.5795 413.835 90.875 413.631 91.3182H413.574V90.6364H412.926V95H413.597V92.375ZM419.435 95.0909C420.322 95.0909 420.969 94.6477 421.174 93.9886L420.526 93.8068C420.356 94.2614 419.961 94.4886 419.435 94.4886C418.648 94.4886 418.106 93.9801 418.075 93.0455H421.242V92.7614C421.242 91.1364 420.276 90.5795 419.367 90.5795C418.185 90.5795 417.401 91.5114 417.401 92.8523C417.401 94.1932 418.174 95.0909 419.435 95.0909ZM418.075 92.4659C418.12 91.7869 418.6 91.1818 419.367 91.1818C420.094 91.1818 420.56 91.7273 420.56 92.4659H418.075ZM422.933 89.1818H422.262V95H422.933V89.1818Z" fill="#5B5B5B"/>
<path d="M147.744 95H148.448V92.3977H151.55V95H152.255V89.1818H151.55V91.7727H148.448V89.1818H147.744V95ZM153.347 89.8068H155.177V95H155.881V89.8068H157.711V89.1818H153.347V89.8068ZM158.48 89.8068H160.31V95H161.014V89.8068H162.844V89.1818H158.48V89.8068ZM163.931 95H164.636V92.875H165.908C167.263 92.875 167.874 92.0511 167.874 91.0227C167.874 89.9943 167.263 89.1818 165.897 89.1818H163.931V95ZM164.636 92.25V89.8068H165.874C166.82 89.8068 167.181 90.3239 167.181 91.0227C167.181 91.7216 166.82 92.25 165.886 92.25H164.636ZM169.598 94.2045H168.871L168.837 94.5227C168.754 95.2926 168.592 96.0597 168.518 96.4205H169.03C169.166 96.0341 169.456 95.1591 169.553 94.5114L169.598 94.2045ZM173.181 95H173.886V92.3977H176.988V95H177.692V89.1818H176.988V91.7727H173.886V89.1818H173.181V95ZM178.785 89.8068H180.614V95H181.319V89.8068H183.148V89.1818H178.785V89.8068ZM183.918 89.8068H185.747V95H186.452V89.8068H188.281V89.1818H183.918V89.8068ZM189.369 95H190.073V92.875H191.346C192.701 92.875 193.312 92.0511 193.312 91.0227C193.312 89.9943 192.701 89.1818 191.335 89.1818H189.369V95ZM190.073 92.25V89.8068H191.312C192.258 89.8068 192.619 90.3239 192.619 91.0227C192.619 91.7216 192.258 92.25 191.323 92.25H190.073ZM197.629 90.6364H198.31C198.279 89.7585 197.469 89.1023 196.344 89.1023C195.231 89.1023 194.356 89.75 194.356 90.7273C194.356 91.5114 194.924 91.9773 195.833 92.2386L196.549 92.4432C197.163 92.6136 197.708 92.8295 197.708 93.4091C197.708 94.0455 197.094 94.4659 196.288 94.4659C195.594 94.4659 194.981 94.1591 194.924 93.5H194.197C194.265 94.4545 195.038 95.1023 196.288 95.1023C197.629 95.1023 198.39 94.3636 198.39 93.4205C198.39 92.3295 197.356 91.9773 196.754 91.8182L196.163 91.6591C195.731 91.5455 195.038 91.3182 195.038 90.6932C195.038 90.1364 195.549 89.7273 196.322 89.7273C197.026 89.7273 197.56 90.0625 197.629 90.6364ZM201.707 95H202.378V92.2386C202.378 91.6477 202.844 91.2159 203.48 91.2159C203.659 91.2159 203.844 91.25 203.889 91.2614V90.5795C203.812 90.5739 203.636 90.5682 203.537 90.5682C203.014 90.5682 202.56 90.8636 202.401 91.2955H202.355V90.6364H201.707V95ZM206.381 95.0909C207.267 95.0909 207.915 94.6477 208.119 93.9886L207.472 93.8068C207.301 94.2614 206.906 94.4886 206.381 94.4886C205.594 94.4886 205.051 93.9801 205.02 93.0455H208.188V92.7614C208.188 91.1364 207.222 90.5795 206.312 90.5795C205.131 90.5795 204.347 91.5114 204.347 92.8523C204.347 94.1932 205.119 95.0909 206.381 95.0909ZM205.02 92.4659C205.065 91.7869 205.545 91.1818 206.312 91.1818C207.04 91.1818 207.506 91.7273 207.506 92.4659H205.02ZM212.855 96.6364V90.6364H212.207V91.3295H212.128C211.98 91.1023 211.719 90.5795 210.866 90.5795C209.764 90.5795 209.003 91.4545 209.003 92.8295C209.003 94.2159 209.764 95.0909 210.855 95.0909C211.696 95.0909 211.98 94.5682 212.128 94.3295H212.185V96.6364H212.855ZM212.196 92.8182C212.196 93.8068 211.753 94.4886 210.946 94.4886C210.105 94.4886 209.673 93.75 209.673 92.8182C209.673 91.8977 210.094 91.1818 210.946 91.1818C211.764 91.1818 212.196 91.8409 212.196 92.8182ZM216.832 93.2159C216.832 94.0341 216.207 94.4091 215.707 94.4091C215.151 94.4091 214.753 94 214.753 93.3636V90.6364H214.082V93.4091C214.082 94.5227 214.673 95.0568 215.491 95.0568C216.151 95.0568 216.582 94.7045 216.787 94.2614H216.832V95H217.503V90.6364H216.832V93.2159ZM220.56 95.0909C221.447 95.0909 222.094 94.6477 222.299 93.9886L221.651 93.8068C221.481 94.2614 221.086 94.4886 220.56 94.4886C219.773 94.4886 219.231 93.9801 219.2 93.0455H222.367V92.7614C222.367 91.1364 221.401 90.5795 220.492 90.5795C219.31 90.5795 218.526 91.5114 218.526 92.8523C218.526 94.1932 219.299 95.0909 220.56 95.0909ZM219.2 92.4659C219.245 91.7869 219.725 91.1818 220.492 91.1818C221.219 91.1818 221.685 91.7273 221.685 92.4659H219.2ZM226.478 91.6136C226.268 90.9943 225.796 90.5795 224.933 90.5795C224.012 90.5795 223.33 91.1023 223.33 91.8409C223.33 92.4432 223.688 92.8466 224.489 93.0341L225.217 93.2045C225.657 93.3068 225.864 93.517 225.864 93.8182C225.864 94.1932 225.467 94.5 224.842 94.5C224.293 94.5 223.95 94.2642 223.83 93.7955L223.194 93.9545C223.35 94.696 223.961 95.0909 224.853 95.0909C225.867 95.0909 226.558 94.5369 226.558 93.7841C226.558 93.1761 226.177 92.7926 225.398 92.6023L224.751 92.4432C224.234 92.3153 224.001 92.142 224.001 91.8068C224.001 91.4318 224.398 91.1591 224.933 91.1591C225.518 91.1591 225.759 91.483 225.876 91.7841L226.478 91.6136ZM229.464 90.6364H228.533V89.5909H227.862V90.6364H227.203V91.2045H227.862V93.9318C227.862 94.6932 228.476 95.0568 229.044 95.0568C229.294 95.0568 229.453 95.0114 229.544 94.9773L229.408 94.375C229.351 94.3864 229.26 94.4091 229.112 94.4091C228.817 94.4091 228.533 94.3182 228.533 93.75V91.2045H229.464V90.6364ZM233.486 91.6136C233.276 90.9943 232.804 90.5795 231.94 90.5795C231.02 90.5795 230.338 91.1023 230.338 91.8409C230.338 92.4432 230.696 92.8466 231.497 93.0341L232.224 93.2045C232.665 93.3068 232.872 93.517 232.872 93.8182C232.872 94.1932 232.474 94.5 231.849 94.5C231.301 94.5 230.957 94.2642 230.838 93.7955L230.202 93.9545C230.358 94.696 230.969 95.0909 231.861 95.0909C232.875 95.0909 233.565 94.5369 233.565 93.7841C233.565 93.1761 233.185 92.7926 232.406 92.6023L231.759 92.4432C231.241 92.3153 231.009 92.142 231.009 91.8068C231.009 91.4318 231.406 91.1591 231.94 91.1591C232.526 91.1591 232.767 91.483 232.884 91.7841L233.486 91.6136Z" fill="#5B5B5B"/>
<path d="M493.445 96H498.559V95.0625H494.502V87.2727H493.445V96ZM502.718 96.1364C504.491 96.1364 505.684 94.7898 505.684 92.7614C505.684 90.7159 504.491 89.3693 502.718 89.3693C500.945 89.3693 499.752 90.7159 499.752 92.7614C499.752 94.7898 500.945 96.1364 502.718 96.1364ZM502.718 95.233C501.372 95.233 500.758 94.0739 500.758 92.7614C500.758 91.4489 501.372 90.2727 502.718 90.2727C504.065 90.2727 504.678 91.4489 504.678 92.7614C504.678 94.0739 504.065 95.233 502.718 95.233ZM509.878 96.1364C511.327 96.1364 512.282 95.25 512.452 94.0909H511.447C511.259 94.8068 510.662 95.233 509.878 95.233C508.685 95.233 507.918 94.2443 507.918 92.7273C507.918 91.2443 508.702 90.2727 509.878 90.2727C510.765 90.2727 511.293 90.8182 511.447 91.4148H512.452C512.282 90.1875 511.242 89.3693 509.861 89.3693C508.089 89.3693 506.912 90.767 506.912 92.7614C506.912 94.7216 508.037 96.1364 509.878 96.1364ZM515.849 96.1534C516.991 96.1534 517.587 95.5398 517.792 95.1136H517.843V96H518.849V91.6875C518.849 89.608 517.263 89.3693 516.428 89.3693C515.439 89.3693 514.314 89.7102 513.803 90.9034L514.758 91.2443C514.979 90.767 515.503 90.2557 516.462 90.2557C517.387 90.2557 517.843 90.7457 517.843 91.5852V91.6193C517.843 92.1051 517.349 92.0625 516.155 92.2159C514.941 92.3736 513.616 92.642 513.616 94.142C513.616 95.4205 514.604 96.1534 515.849 96.1534ZM516.002 95.25C515.201 95.25 514.621 94.892 514.621 94.1932C514.621 93.4261 515.32 93.1875 516.104 93.0852C516.53 93.0341 517.672 92.9148 517.843 92.7102V93.6307C517.843 94.4489 517.195 95.25 516.002 95.25ZM521.69 87.2727H520.684V96H521.69V87.2727ZM486.405 107.062C486.405 105.92 487.112 105.273 488.075 105.273C489.008 105.273 489.575 105.882 489.575 106.909V111H490.581V106.841C490.581 105.17 489.69 104.369 488.365 104.369C487.376 104.369 486.763 104.812 486.456 105.477H486.371V104.455H485.399V111H486.405V107.062ZM495.163 111.136C496.492 111.136 497.464 110.472 497.771 109.483L496.799 109.21C496.544 109.892 495.951 110.233 495.163 110.233C493.982 110.233 493.169 109.47 493.122 108.068H497.873V107.642C497.873 105.205 496.424 104.369 495.061 104.369C493.288 104.369 492.112 105.767 492.112 107.778C492.112 109.79 493.271 111.136 495.163 111.136ZM493.122 107.199C493.19 106.18 493.91 105.273 495.061 105.273C496.151 105.273 496.85 106.091 496.85 107.199H493.122ZM502.249 104.455H500.852V102.886H499.846V104.455H498.857V105.307H499.846V109.398C499.846 110.54 500.767 111.085 501.619 111.085C501.994 111.085 502.232 111.017 502.369 110.966L502.164 110.062C502.079 110.08 501.943 110.114 501.721 110.114C501.278 110.114 500.852 109.977 500.852 109.125V105.307H502.249V104.455ZM505.245 111H506.234L507.666 105.972H507.768L509.2 111H510.188L512.183 104.455H511.126L509.711 109.449H509.643L508.262 104.455H507.188L505.791 109.466H505.722L504.308 104.455H503.251L505.245 111ZM515.949 111.136C517.721 111.136 518.915 109.79 518.915 107.761C518.915 105.716 517.721 104.369 515.949 104.369C514.176 104.369 512.983 105.716 512.983 107.761C512.983 109.79 514.176 111.136 515.949 111.136ZM515.949 110.233C514.602 110.233 513.988 109.074 513.988 107.761C513.988 106.449 514.602 105.273 515.949 105.273C517.295 105.273 517.909 106.449 517.909 107.761C517.909 109.074 517.295 110.233 515.949 110.233ZM520.45 111H521.455V106.858C521.455 105.972 522.154 105.324 523.109 105.324C523.377 105.324 523.654 105.375 523.722 105.392V104.369C523.607 104.361 523.343 104.352 523.194 104.352C522.41 104.352 521.728 104.795 521.49 105.443H521.421V104.455H520.45V111ZM524.915 111H525.92V108.55L526.623 107.898L529.074 111H530.352L527.382 107.25L530.148 104.455H528.903L526.04 107.369H525.92V102.273H524.915V111Z" fill="black"/>
<path d="M253.354 100.354C253.549 100.158 253.549 99.8417 253.354 99.6464L250.172 96.4645C249.976 96.2692 249.66 96.2692 249.464 96.4645C249.269 96.6597 249.269 96.9763 249.464 97.1716L252.293 100L249.464 102.828C249.269 103.024 249.269 103.34 249.464 103.536C249.66 103.731 249.976 103.731 250.172 103.536L253.354 100.354ZM127 100.5H253V99.5H127V100.5Z" fill="black"/>
<path d="M348.646 98.6465C348.451 98.8417 348.451 99.1583 348.646 99.3536L351.828 102.536C352.024 102.731 352.34 102.731 352.536 102.536C352.731 102.34 352.731 102.024 352.536 101.828L349.707 99L352.536 96.1716C352.731 95.9763 352.731 95.6597 352.536 95.4645C352.34 95.2692 352.024 95.2692 351.828 95.4645L348.646 98.6465ZM459 98.5L349 98.5L349 99.5L459 99.5L459 98.5Z" fill="black"/>
<path d="M459.354 107.354C459.549 107.158 459.549 106.842 459.354 106.646L456.172 103.464C455.976 103.269 455.66 103.269 455.464 103.464C455.269 103.66 455.269 103.976 455.464 104.172L458.293 107L455.464 109.828C455.269 110.024 455.269 110.34 455.464 110.536C455.66 110.731 455.976 110.731 456.172 110.536L459.354 107.354ZM349 107.5L459 107.5L459 106.5L349 106.5L349 107.5Z" fill="black"/>
</svg>
