<svg width="412" height="200" viewBox="0 0 412 200" fill="none" xmlns="http://www.w3.org/2000/svg">
<rect x="11.25" y="60.25" width="79.5" height="79.5" rx="5.75" stroke="#A3A3A3" stroke-width="0.5"/>
<rect x="166.25" y="60.25" width="79.5" height="79.5" rx="5.75" stroke="#A3A3A3" stroke-width="0.5"/>
<rect x="317.25" y="60.25" width="79.5" height="79.5" rx="5.75" stroke="#A3A3A3" stroke-width="0.5"/>
<path d="M31.4652 94.2727H30.4084V103H31.4652V94.2727ZM34.4535 99.0625C34.4535 97.9205 35.1609 97.2727 36.1239 97.2727C37.0572 97.2727 37.6239 97.8821 37.6239 98.9091V103H38.6296V98.8409C38.6296 97.1705 37.739 96.3693 36.4137 96.3693C35.4251 96.3693 34.8114 96.8125 34.5046 97.4773H34.4194V96.4545H33.4478V103H34.4535V99.0625ZM43.3139 96.4545H41.9162V94.8864H40.9105V96.4545H39.9219V97.3068H40.9105V101.398C40.9105 102.54 41.831 103.085 42.6832 103.085C43.0582 103.085 43.2969 103.017 43.4332 102.966L43.2287 102.062C43.1435 102.08 43.0071 102.114 42.7855 102.114C42.3423 102.114 41.9162 101.977 41.9162 101.125V97.3068H43.3139V96.4545ZM47.5007 103.136C48.8303 103.136 49.8018 102.472 50.1087 101.483L49.1371 101.21C48.8814 101.892 48.2891 102.233 47.5007 102.233C46.3203 102.233 45.5064 101.47 45.4595 100.068H50.2109V99.642C50.2109 97.2045 48.7621 96.3693 47.3984 96.3693C45.6257 96.3693 44.4496 97.767 44.4496 99.7784C44.4496 101.79 45.6087 103.136 47.5007 103.136ZM45.4595 99.1989C45.5277 98.1804 46.2479 97.2727 47.3984 97.2727C48.4893 97.2727 49.1882 98.0909 49.1882 99.1989H45.4595ZM51.7408 103H52.7464V98.858C52.7464 97.9716 53.4453 97.3239 54.3999 97.3239C54.6683 97.3239 54.9453 97.375 55.0135 97.392V96.3693C54.8984 96.3608 54.6342 96.3523 54.4851 96.3523C53.701 96.3523 53.0192 96.7955 52.7805 97.4432H52.7124V96.4545H51.7408V103ZM57.2113 99.0625C57.2113 97.9205 57.9187 97.2727 58.8817 97.2727C59.815 97.2727 60.3817 97.8821 60.3817 98.9091V103H61.3874V98.8409C61.3874 97.1705 60.4968 96.3693 59.1715 96.3693C58.1829 96.3693 57.5692 96.8125 57.2624 97.4773H57.1772V96.4545H56.2056V103H57.2113V99.0625ZM65.9695 103.136C67.299 103.136 68.2706 102.472 68.5774 101.483L67.6058 101.21C67.3501 101.892 66.7578 102.233 65.9695 102.233C64.7891 102.233 63.9751 101.47 63.9283 100.068H68.6797V99.642C68.6797 97.2045 67.2308 96.3693 65.8672 96.3693C64.0945 96.3693 62.9183 97.767 62.9183 99.7784C62.9183 101.79 64.0774 103.136 65.9695 103.136ZM63.9283 99.1989C63.9964 98.1804 64.7166 97.2727 65.8672 97.2727C66.9581 97.2727 67.657 98.0909 67.657 99.1989H63.9283ZM73.0561 96.4545H71.6584V94.8864H70.6527V96.4545H69.6641V97.3068H70.6527V101.398C70.6527 102.54 71.5732 103.085 72.4254 103.085C72.8004 103.085 73.0391 103.017 73.1754 102.966L72.9709 102.062C72.8857 102.08 72.7493 102.114 72.5277 102.114C72.0845 102.114 71.6584 101.977 71.6584 101.125V97.3068H73.0561V96.4545Z" fill="black"/>
<path d="M187.062 97H188.153C187.829 95.3125 186.414 94.1534 184.573 94.1534C182.336 94.1534 180.755 95.875 180.755 98.6364C180.755 101.398 182.323 103.119 184.641 103.119C186.721 103.119 188.204 101.734 188.204 99.5739V98.6364H184.88V99.5739H187.181C187.151 101.142 186.12 102.131 184.641 102.131C183.022 102.131 181.778 100.903 181.778 98.6364C181.778 96.3693 183.022 95.142 184.573 95.142C185.835 95.142 186.691 95.8537 187.062 97ZM191.804 103.153C192.946 103.153 193.542 102.54 193.747 102.114H193.798V103H194.804V98.6875C194.804 96.608 193.218 96.3693 192.383 96.3693C191.395 96.3693 190.27 96.7102 189.758 97.9034L190.713 98.2443C190.934 97.767 191.458 97.2557 192.417 97.2557C193.342 97.2557 193.798 97.7457 193.798 98.5852V98.6193C193.798 99.1051 193.304 99.0625 192.11 99.2159C190.896 99.3736 189.571 99.642 189.571 101.142C189.571 102.42 190.559 103.153 191.804 103.153ZM191.957 102.25C191.156 102.25 190.576 101.892 190.576 101.193C190.576 100.426 191.275 100.188 192.059 100.085C192.485 100.034 193.627 99.9148 193.798 99.7102V100.631C193.798 101.449 193.15 102.25 191.957 102.25ZM199.486 96.4545H198.088V94.8864H197.082V96.4545H196.094V97.3068H197.082V101.398C197.082 102.54 198.003 103.085 198.855 103.085C199.23 103.085 199.469 103.017 199.605 102.966L199.401 102.062C199.315 102.08 199.179 102.114 198.957 102.114C198.514 102.114 198.088 101.977 198.088 101.125V97.3068H199.486V96.4545ZM203.673 103.136C205.002 103.136 205.974 102.472 206.281 101.483L205.309 101.21C205.053 101.892 204.461 102.233 203.673 102.233C202.492 102.233 201.678 101.47 201.631 100.068H206.383V99.642C206.383 97.2045 204.934 96.3693 203.57 96.3693C201.798 96.3693 200.621 97.767 200.621 99.7784C200.621 101.79 201.781 103.136 203.673 103.136ZM201.631 99.1989C201.7 98.1804 202.42 97.2727 203.57 97.2727C204.661 97.2727 205.36 98.0909 205.36 99.1989H201.631ZM209.396 103H210.384L211.816 97.9716H211.918L213.35 103H214.339L216.333 96.4545H215.276L213.862 101.449H213.793L212.413 96.4545H211.339L209.941 101.466H209.873L208.458 96.4545H207.401L209.396 103ZM219.589 103.153C220.731 103.153 221.327 102.54 221.532 102.114H221.583V103H222.589V98.6875C222.589 96.608 221.004 96.3693 220.168 96.3693C219.18 96.3693 218.055 96.7102 217.543 97.9034L218.498 98.2443C218.719 97.767 219.244 97.2557 220.202 97.2557C221.127 97.2557 221.583 97.7457 221.583 98.5852V98.6193C221.583 99.1051 221.089 99.0625 219.896 99.2159C218.681 99.3736 217.356 99.642 217.356 101.142C217.356 102.42 218.344 103.153 219.589 103.153ZM219.742 102.25C218.941 102.25 218.362 101.892 218.362 101.193C218.362 100.426 219.06 100.188 219.844 100.085C220.271 100.034 221.413 99.9148 221.583 99.7102V100.631C221.583 101.449 220.935 102.25 219.742 102.25ZM224.838 105.455C225.745 105.455 226.385 104.973 226.764 103.955L229.551 96.4716L228.451 96.4545L226.645 101.67H226.576L224.77 96.4545H223.679L226.099 103.034L225.912 103.545C225.545 104.543 225.093 104.636 224.36 104.449L224.105 105.335C224.207 105.386 224.497 105.455 224.838 105.455Z" fill="black"/>
<path d="M259.339 90.6364H260.021C259.99 89.7585 259.18 89.1023 258.055 89.1023C256.942 89.1023 256.067 89.75 256.067 90.7273C256.067 91.5114 256.635 91.9773 257.544 92.2386L258.26 92.4432C258.874 92.6136 259.419 92.8295 259.419 93.4091C259.419 94.0455 258.805 94.4659 257.999 94.4659C257.305 94.4659 256.692 94.1591 256.635 93.5H255.908C255.976 94.4545 256.749 95.1023 257.999 95.1023C259.339 95.1023 260.101 94.3636 260.101 93.4205C260.101 92.3295 259.067 91.9773 258.464 91.8182L257.874 91.6591C257.442 91.5455 256.749 91.3182 256.749 90.6932C256.749 90.1364 257.26 89.7273 258.033 89.7273C258.737 89.7273 259.271 90.0625 259.339 90.6364ZM262.998 95.0909C263.884 95.0909 264.532 94.6477 264.737 93.9886L264.089 93.8068C263.918 94.2614 263.523 94.4886 262.998 94.4886C262.211 94.4886 261.668 93.9801 261.637 93.0455H264.805V92.7614C264.805 91.1364 263.839 90.5795 262.93 90.5795C261.748 90.5795 260.964 91.5114 260.964 92.8523C260.964 94.1932 261.737 95.0909 262.998 95.0909ZM261.637 92.4659C261.683 91.7869 262.163 91.1818 262.93 91.1818C263.657 91.1818 264.123 91.7273 264.123 92.4659H261.637ZM267.597 95.0909C268.563 95.0909 269.2 94.5 269.313 93.7273H268.643C268.518 94.2045 268.12 94.4886 267.597 94.4886C266.802 94.4886 266.29 93.8295 266.29 92.8182C266.29 91.8295 266.813 91.1818 267.597 91.1818C268.188 91.1818 268.54 91.5455 268.643 91.9432H269.313C269.2 91.125 268.506 90.5795 267.586 90.5795C266.404 90.5795 265.62 91.5114 265.62 92.8409C265.62 94.1477 266.37 95.0909 267.597 95.0909ZM273.043 93.2159C273.043 94.0341 272.418 94.4091 271.918 94.4091C271.362 94.4091 270.964 94 270.964 93.3636V90.6364H270.293V93.4091C270.293 94.5227 270.884 95.0568 271.702 95.0568C272.362 95.0568 272.793 94.7045 272.998 94.2614H273.043V95H273.714V90.6364H273.043V93.2159ZM274.942 95H275.612V92.2386C275.612 91.6477 276.078 91.2159 276.714 91.2159C276.893 91.2159 277.078 91.25 277.124 91.2614V90.5795C277.047 90.5739 276.871 90.5682 276.771 90.5682C276.249 90.5682 275.794 90.8636 275.635 91.2955H275.589V90.6364H274.942V95ZM279.615 95.0909C280.501 95.0909 281.149 94.6477 281.354 93.9886L280.706 93.8068C280.536 94.2614 280.141 94.4886 279.615 94.4886C278.828 94.4886 278.286 93.9801 278.254 93.0455H281.422V92.7614C281.422 91.1364 280.456 90.5795 279.547 90.5795C278.365 90.5795 277.581 91.5114 277.581 92.8523C277.581 94.1932 278.354 95.0909 279.615 95.0909ZM278.254 92.4659C278.3 91.7869 278.78 91.1818 279.547 91.1818C280.274 91.1818 280.74 91.7273 280.74 92.4659H278.254ZM286.589 90.6364H285.658V89.5909H284.987V90.6364H284.328V91.2045H284.987V93.9318C284.987 94.6932 285.601 95.0568 286.169 95.0568C286.419 95.0568 286.578 95.0114 286.669 94.9773L286.533 94.375C286.476 94.3864 286.385 94.4091 286.237 94.4091C285.942 94.4091 285.658 94.3182 285.658 93.75V91.2045H286.589V90.6364ZM290.348 93.2159C290.348 94.0341 289.723 94.4091 289.223 94.4091C288.666 94.4091 288.268 94 288.268 93.3636V90.6364H287.598V93.4091C287.598 94.5227 288.189 95.0568 289.007 95.0568C289.666 95.0568 290.098 94.7045 290.303 94.2614H290.348V95H291.018V90.6364H290.348V93.2159ZM292.917 92.375C292.917 91.6136 293.388 91.1818 294.031 91.1818C294.653 91.1818 295.031 91.5881 295.031 92.2727V95H295.701V92.2273C295.701 91.1136 295.107 90.5795 294.224 90.5795C293.565 90.5795 293.156 90.875 292.951 91.3182H292.894V90.6364H292.246V95H292.917V92.375ZM297.597 92.375C297.597 91.6136 298.068 91.1818 298.71 91.1818C299.332 91.1818 299.71 91.5881 299.71 92.2727V95H300.381V92.2273C300.381 91.1136 299.787 90.5795 298.903 90.5795C298.244 90.5795 297.835 90.875 297.631 91.3182H297.574V90.6364H296.926V95H297.597V92.375ZM303.435 95.0909C304.322 95.0909 304.969 94.6477 305.174 93.9886L304.526 93.8068C304.356 94.2614 303.961 94.4886 303.435 94.4886C302.648 94.4886 302.106 93.9801 302.075 93.0455H305.242V92.7614C305.242 91.1364 304.276 90.5795 303.367 90.5795C302.185 90.5795 301.401 91.5114 301.401 92.8523C301.401 94.1932 302.174 95.0909 303.435 95.0909ZM302.075 92.4659C302.12 91.7869 302.6 91.1818 303.367 91.1818C304.094 91.1818 304.56 91.7273 304.56 92.4659H302.075ZM306.933 89.1818H306.262V95H306.933V89.1818Z" fill="#5B5B5B"/>
<path d="M116.486 83H117.19V80.3977H120.293V83H120.997V77.1818H120.293V79.7727H117.19V77.1818H116.486V83ZM122.089 77.8068H123.919V83H124.624V77.8068H126.453V77.1818H122.089V77.8068ZM127.222 77.8068H129.052V83H129.756V77.8068H131.586V77.1818H127.222V77.8068ZM132.673 83H133.378V80.875H134.651C136.006 80.875 136.616 80.0511 136.616 79.0227C136.616 77.9943 136.006 77.1818 134.639 77.1818H132.673V83ZM133.378 80.25V77.8068H134.616C135.562 77.8068 135.923 78.3239 135.923 79.0227C135.923 79.7216 135.562 80.25 134.628 80.25H133.378ZM138.34 82.2045H137.613L137.579 82.5227C137.496 83.2926 137.335 84.0597 137.261 84.4205H137.772C137.908 84.0341 138.198 83.1591 138.295 82.5114L138.34 82.2045ZM98.4624 93H99.1669V90.3977H102.269V93H102.974V87.1818H102.269V89.7727H99.1669V87.1818H98.4624V93ZM104.066 87.8068H105.896V93H106.6V87.8068H108.43V87.1818H104.066V87.8068ZM109.199 87.8068H111.028V93H111.733V87.8068H113.562V87.1818H109.199V87.8068ZM114.65 93H115.354V90.875H116.627C117.982 90.875 118.593 90.0511 118.593 89.0227C118.593 87.9943 117.982 87.1818 116.616 87.1818H114.65V93ZM115.354 90.25V87.8068H116.593C117.539 87.8068 117.9 88.3239 117.9 89.0227C117.9 89.7216 117.539 90.25 116.604 90.25H115.354ZM122.91 88.6364H123.592C123.56 87.7585 122.751 87.1023 121.626 87.1023C120.512 87.1023 119.637 87.75 119.637 88.7273C119.637 89.5114 120.205 89.9773 121.114 90.2386L121.83 90.4432C122.444 90.6136 122.989 90.8295 122.989 91.4091C122.989 92.0455 122.376 92.4659 121.569 92.4659C120.876 92.4659 120.262 92.1591 120.205 91.5H119.478C119.546 92.4545 120.319 93.1023 121.569 93.1023C122.91 93.1023 123.671 92.3636 123.671 91.4205C123.671 90.3295 122.637 89.9773 122.035 89.8182L121.444 89.6591C121.012 89.5455 120.319 89.3182 120.319 88.6932C120.319 88.1364 120.83 87.7273 121.603 87.7273C122.308 87.7273 122.842 88.0625 122.91 88.6364ZM126.989 93H127.659V90.2386C127.659 89.6477 128.125 89.2159 128.761 89.2159C128.94 89.2159 129.125 89.25 129.17 89.2614V88.5795C129.094 88.5739 128.918 88.5682 128.818 88.5682C128.295 88.5682 127.841 88.8636 127.682 89.2955H127.636V88.6364H126.989V93ZM131.662 93.0909C132.548 93.0909 133.196 92.6477 133.401 91.9886L132.753 91.8068C132.582 92.2614 132.188 92.4886 131.662 92.4886C130.875 92.4886 130.332 91.9801 130.301 91.0455H133.469V90.7614C133.469 89.1364 132.503 88.5795 131.594 88.5795C130.412 88.5795 129.628 89.5114 129.628 90.8523C129.628 92.1932 130.401 93.0909 131.662 93.0909ZM130.301 90.4659C130.347 89.7869 130.827 89.1818 131.594 89.1818C132.321 89.1818 132.787 89.7273 132.787 90.4659H130.301ZM138.136 94.6364V88.6364H137.489V89.3295H137.409C137.261 89.1023 137 88.5795 136.148 88.5795C135.045 88.5795 134.284 89.4545 134.284 90.8295C134.284 92.2159 135.045 93.0909 136.136 93.0909C136.977 93.0909 137.261 92.5682 137.409 92.3295H137.466V94.6364H138.136ZM137.477 90.8182C137.477 91.8068 137.034 92.4886 136.227 92.4886C135.386 92.4886 134.955 91.75 134.955 90.8182C134.955 89.8977 135.375 89.1818 136.227 89.1818C137.045 89.1818 137.477 89.8409 137.477 90.8182ZM142.114 91.2159C142.114 92.0341 141.489 92.4091 140.989 92.4091C140.432 92.4091 140.034 92 140.034 91.3636V88.6364H139.364V91.4091C139.364 92.5227 139.955 93.0568 140.773 93.0568C141.432 93.0568 141.864 92.7045 142.068 92.2614H142.114V93H142.784V88.6364H142.114V91.2159ZM145.842 93.0909C146.728 93.0909 147.376 92.6477 147.58 91.9886L146.933 91.8068C146.762 92.2614 146.367 92.4886 145.842 92.4886C145.055 92.4886 144.512 91.9801 144.481 91.0455H147.648V90.7614C147.648 89.1364 146.683 88.5795 145.773 88.5795C144.592 88.5795 143.808 89.5114 143.808 90.8523C143.808 92.1932 144.58 93.0909 145.842 93.0909ZM144.481 90.4659C144.526 89.7869 145.006 89.1818 145.773 89.1818C146.501 89.1818 146.967 89.7273 146.967 90.4659H144.481ZM151.759 89.6136C151.549 88.9943 151.077 88.5795 150.214 88.5795C149.293 88.5795 148.612 89.1023 148.612 89.8409C148.612 90.4432 148.969 90.8466 149.771 91.0341L150.498 91.2045C150.938 91.3068 151.146 91.517 151.146 91.8182C151.146 92.1932 150.748 92.5 150.123 92.5C149.575 92.5 149.231 92.2642 149.112 91.7955L148.475 91.9545C148.631 92.696 149.242 93.0909 150.134 93.0909C151.148 93.0909 151.839 92.5369 151.839 91.7841C151.839 91.1761 151.458 90.7926 150.68 90.6023L150.032 90.4432C149.515 90.3153 149.282 90.142 149.282 89.8068C149.282 89.4318 149.68 89.1591 150.214 89.1591C150.799 89.1591 151.04 89.483 151.157 89.7841L151.759 89.6136ZM154.746 88.6364H153.814V87.5909H153.143V88.6364H152.484V89.2045H153.143V91.9318C153.143 92.6932 153.757 93.0568 154.325 93.0568C154.575 93.0568 154.734 93.0114 154.825 92.9773L154.689 92.375C154.632 92.3864 154.541 92.4091 154.393 92.4091C154.098 92.4091 153.814 92.3182 153.814 91.75V89.2045H154.746V88.6364ZM158.767 89.6136C158.557 88.9943 158.085 88.5795 157.222 88.5795C156.301 88.5795 155.619 89.1023 155.619 89.8409C155.619 90.4432 155.977 90.8466 156.778 91.0341L157.506 91.2045C157.946 91.3068 158.153 91.517 158.153 91.8182C158.153 92.1932 157.756 92.5 157.131 92.5C156.582 92.5 156.239 92.2642 156.119 91.7955L155.483 91.9545C155.639 92.696 156.25 93.0909 157.142 93.0909C158.156 93.0909 158.847 92.5369 158.847 91.7841C158.847 91.1761 158.466 90.7926 157.688 90.6023L157.04 90.4432C156.523 90.3153 156.29 90.142 156.29 89.8068C156.29 89.4318 156.688 89.1591 157.222 89.1591C157.807 89.1591 158.048 89.483 158.165 89.7841L158.767 89.6136Z" fill="#5B5B5B"/>
<path d="M343.445 96H348.559V95.0625H344.502V87.2727H343.445V96ZM352.718 96.1364C354.491 96.1364 355.684 94.7898 355.684 92.7614C355.684 90.7159 354.491 89.3693 352.718 89.3693C350.945 89.3693 349.752 90.7159 349.752 92.7614C349.752 94.7898 350.945 96.1364 352.718 96.1364ZM352.718 95.233C351.372 95.233 350.758 94.0739 350.758 92.7614C350.758 91.4489 351.372 90.2727 352.718 90.2727C354.065 90.2727 354.678 91.4489 354.678 92.7614C354.678 94.0739 354.065 95.233 352.718 95.233ZM359.878 96.1364C361.327 96.1364 362.282 95.25 362.452 94.0909H361.447C361.259 94.8068 360.662 95.233 359.878 95.233C358.685 95.233 357.918 94.2443 357.918 92.7273C357.918 91.2443 358.702 90.2727 359.878 90.2727C360.765 90.2727 361.293 90.8182 361.447 91.4148H362.452C362.282 90.1875 361.242 89.3693 359.861 89.3693C358.089 89.3693 356.912 90.767 356.912 92.7614C356.912 94.7216 358.037 96.1364 359.878 96.1364ZM365.849 96.1534C366.991 96.1534 367.587 95.5398 367.792 95.1136H367.843V96H368.849V91.6875C368.849 89.608 367.263 89.3693 366.428 89.3693C365.439 89.3693 364.314 89.7102 363.803 90.9034L364.758 91.2443C364.979 90.767 365.503 90.2557 366.462 90.2557C367.387 90.2557 367.843 90.7457 367.843 91.5852V91.6193C367.843 92.1051 367.349 92.0625 366.155 92.2159C364.941 92.3736 363.616 92.642 363.616 94.142C363.616 95.4205 364.604 96.1534 365.849 96.1534ZM366.002 95.25C365.201 95.25 364.621 94.892 364.621 94.1932C364.621 93.4261 365.32 93.1875 366.104 93.0852C366.53 93.0341 367.672 92.9148 367.843 92.7102V93.6307C367.843 94.4489 367.195 95.25 366.002 95.25ZM371.69 87.2727H370.684V96H371.69V87.2727ZM336.405 107.062C336.405 105.92 337.112 105.273 338.075 105.273C339.008 105.273 339.575 105.882 339.575 106.909V111H340.581V106.841C340.581 105.17 339.69 104.369 338.365 104.369C337.376 104.369 336.763 104.812 336.456 105.477H336.371V104.455H335.399V111H336.405V107.062ZM345.163 111.136C346.492 111.136 347.464 110.472 347.771 109.483L346.799 109.21C346.544 109.892 345.951 110.233 345.163 110.233C343.982 110.233 343.169 109.47 343.122 108.068H347.873V107.642C347.873 105.205 346.424 104.369 345.061 104.369C343.288 104.369 342.112 105.767 342.112 107.778C342.112 109.79 343.271 111.136 345.163 111.136ZM343.122 107.199C343.19 106.18 343.91 105.273 345.061 105.273C346.151 105.273 346.85 106.091 346.85 107.199H343.122ZM352.249 104.455H350.852V102.886H349.846V104.455H348.857V105.307H349.846V109.398C349.846 110.54 350.767 111.085 351.619 111.085C351.994 111.085 352.232 111.017 352.369 110.966L352.164 110.062C352.079 110.08 351.943 110.114 351.721 110.114C351.278 110.114 350.852 109.977 350.852 109.125V105.307H352.249V104.455ZM355.245 111H356.234L357.666 105.972H357.768L359.2 111H360.188L362.183 104.455H361.126L359.711 109.449H359.643L358.262 104.455H357.188L355.791 109.466H355.722L354.308 104.455H353.251L355.245 111ZM365.949 111.136C367.721 111.136 368.915 109.79 368.915 107.761C368.915 105.716 367.721 104.369 365.949 104.369C364.176 104.369 362.983 105.716 362.983 107.761C362.983 109.79 364.176 111.136 365.949 111.136ZM365.949 110.233C364.602 110.233 363.988 109.074 363.988 107.761C363.988 106.449 364.602 105.273 365.949 105.273C367.295 105.273 367.909 106.449 367.909 107.761C367.909 109.074 367.295 110.233 365.949 110.233ZM370.45 111H371.455V106.858C371.455 105.972 372.154 105.324 373.109 105.324C373.377 105.324 373.654 105.375 373.722 105.392V104.369C373.607 104.361 373.343 104.352 373.194 104.352C372.41 104.352 371.728 104.795 371.49 105.443H371.421V104.455H370.45V111ZM374.915 111H375.92V108.55L376.623 107.898L379.074 111H380.352L377.382 107.25L380.148 104.455H378.903L376.04 107.369H375.92V102.273H374.915V111Z" fill="black"/>
<path d="M161.354 100.354C161.549 100.158 161.549 99.8417 161.354 99.6464L158.172 96.4645C157.976 96.2692 157.66 96.2692 157.464 96.4645C157.269 96.6597 157.269 96.9763 157.464 97.1716L160.293 100L157.464 102.828C157.269 103.024 157.269 103.34 157.464 103.536C157.66 103.731 157.976 103.731 158.172 103.536L161.354 100.354ZM96 100.5H161V99.5H96V100.5Z" fill="black"/>
<path d="M249.646 98.6464C249.451 98.8417 249.451 99.1583 249.646 99.3536L252.828 102.536C253.024 102.731 253.34 102.731 253.536 102.536C253.731 102.34 253.731 102.024 253.536 101.828L250.707 99L253.536 96.1716C253.731 95.9763 253.731 95.6597 253.536 95.4645C253.34 95.2692 253.024 95.2692 252.828 95.4645L249.646 98.6464ZM312 98.5L250 98.5V99.5L312 99.5V98.5Z" fill="black"/>
<path d="M312.354 107.354C312.549 107.158 312.549 106.842 312.354 106.646L309.172 103.464C308.976 103.269 308.66 103.269 308.464 103.464C308.269 103.66 308.269 103.976 308.464 104.172L311.293 107L308.464 109.828C308.269 110.024 308.269 110.34 308.464 110.536C308.66 110.731 308.976 110.731 309.172 110.536L312.354 107.354ZM250 107.5L312 107.5V106.5L250 106.5V107.5Z" fill="black"/>
</svg>
